STARTFONT 2.1
COMMENT
COMMENT Converted from OpenType font "light_pixel-7.ttf" by "otf2bdf 3.0".
COMMENT
FONT -FreeType-Light Pixel 7-Medium-R-Normal--17-120-100-100-P-102-ISO10646-1
SIZE 12 100 100
FONTBOUNDINGBOX 15 25 0 -5
STARTPROPERTIES 19
FOUNDRY "FreeType"
FAMILY_NAME "Light Pixel 7"
WEIGHT_NAME "Medium"
SLANT "R"
SETWIDTH_NAME "Normal"
ADD_STYLE_NAME ""
PIXEL_SIZE 17
POINT_SIZE 120
RESOLUTION_X 100
RESOLUTION_Y 100
SPACING "P"
AVERAGE_WIDTH 102
CHARSET_REGISTRY "ISO10646"
CHARSET_ENCODING "1"
FONT_ASCENT 12
FONT_DESCENT 4
COPYRIGHT "Copyright (c) 2013 by Style-7. All rights reserved. http://www.styleseven.com"
_OTF_FONTFILE "light_pixel-7.ttf"
_OTF_PSNAME "LightPixel-7"
ENDPROPERTIES
CHARS 317
STARTCHAR 0020
ENCODING 32
SWIDTH 720 0
DWIDTH 12 0
BBX 0 0 0 0
BITMAP
ENDCHAR
STARTCHAR 0021
ENCODING 33
SWIDTH 300 0
DWIDTH 5 0
BBX 3 16 0 0
BITMAP
E0
E0
E0
E0
E0
E0
E0
E0
E0
E0
E0
00
00
E0
E0
E0
ENDCHAR
STARTCHAR 0022
ENCODING 34
SWIDTH 600 0
DWIDTH 10 0
BBX 8 6 0 10
BITMAP
63
E7
E7
E7
E7
C6
ENDCHAR
STARTCHAR 0023
ENCODING 35
SWIDTH 840 0
DWIDTH 14 0
BBX 12 16 0 0
BITMAP
39C0
39C0
39C0
FFF0
FFF0
FFF0
39C0
39C0
39C0
39C0
FFF0
FFF0
FFF0
39C0
39C0
39C0
ENDCHAR
STARTCHAR 0024
ENCODING 36
SWIDTH 840 0
DWIDTH 14 0
BBX 12 19 0 -1
BITMAP
0600
0600
7FE0
FFF0
FFF0
E670
E670
E600
FFE0
FFF0
FFF0
0670
0670
E670
E670
FFF0
FFF0
7FE0
0600
ENDCHAR
STARTCHAR 0025
ENCODING 37
SWIDTH 840 0
DWIDTH 14 0
BBX 12 16 0 0
BITMAP
F870
D870
D870
D870
71E0
73E0
07C0
0F80
1E00
3C00
79E0
F3F0
E330
E330
E3F0
E1E0
ENDCHAR
STARTCHAR 0026
ENCODING 38
SWIDTH 840 0
DWIDTH 14 0
BBX 12 16 0 0
BITMAP
FF00
FF00
FF00
E700
E700
6700
7EE0
7E70
7E70
E780
E700
E700
E680
FE70
FE70
7E60
ENDCHAR
STARTCHAR 0027
ENCODING 39
SWIDTH 300 0
DWIDTH 5 0
BBX 3 6 0 10
BITMAP
60
E0
E0
E0
E0
C0
ENDCHAR
STARTCHAR 0028
ENCODING 40
SWIDTH 480 0
DWIDTH 8 0
BBX 7 16 0 0
BITMAP
7E
7E
7E
F0
E0
E0
E0
E0
E0
E0
E0
E0
F0
7E
7E
3C
ENDCHAR
STARTCHAR 0029
ENCODING 41
SWIDTH 540 0
DWIDTH 9 0
BBX 7 16 0 0
BITMAP
FC
FC
FC
1E
0E
0E
0E
0E
0E
0E
0E
0E
1E
FC
FC
78
ENDCHAR
STARTCHAR 002A
ENCODING 42
SWIDTH 600 0
DWIDTH 10 0
BBX 9 8 0 4
BITMAP
6300
FF80
FF80
3E00
3E00
FF80
F780
6300
ENDCHAR
STARTCHAR 002B
ENCODING 43
SWIDTH 720 0
DWIDTH 12 0
BBX 11 10 0 3
BITMAP
0E00
0E00
0E00
0E00
7FC0
FFE0
FFE0
0E00
0E00
0E00
ENDCHAR
STARTCHAR 002C
ENCODING 44
SWIDTH 360 0
DWIDTH 6 0
BBX 4 6 0 -3
BITMAP
E0
F0
F0
30
30
30
ENDCHAR
STARTCHAR 002D
ENCODING 45
SWIDTH 720 0
DWIDTH 12 0
BBX 10 3 0 7
BITMAP
7F80
FFC0
FFC0
ENDCHAR
STARTCHAR 002E
ENCODING 46
SWIDTH 300 0
DWIDTH 5 0
BBX 3 3 0 0
BITMAP
E0
E0
E0
ENDCHAR
STARTCHAR 002F
ENCODING 47
SWIDTH 840 0
DWIDTH 14 0
BBX 12 16 0 0
BITMAP
0070
0070
0070
0070
00F0
03E0
07C0
0F80
1F00
7C00
7800
F000
E000
E000
E000
E000
ENDCHAR
STARTCHAR 0030
ENCODING 48
SWIDTH 720 0
DWIDTH 12 0
BBX 10 16 0 0
BITMAP
FFC0
FFC0
FFC0
E1C0
E1C0
E1C0
E7C0
EFC0
F9C0
F1C0
E1C0
E1C0
E1C0
FFC0
FFC0
7F80
ENDCHAR
STARTCHAR 0031
ENCODING 49
SWIDTH 720 0
DWIDTH 12 0
BBX 10 16 0 0
BITMAP
7E00
FE00
FE00
0E00
0E00
0E00
0E00
0E00
0E00
0E00
0E00
0E00
0E00
FFC0
FFC0
FFC0
ENDCHAR
STARTCHAR 0032
ENCODING 50
SWIDTH 720 0
DWIDTH 12 0
BBX 10 16 0 0
BITMAP
7F80
FFC0
FFC0
E1C0
E1C0
01C0
7FC0
FFC0
FFC0
E000
E000
E000
E000
FFC0
FFC0
FFC0
ENDCHAR
STARTCHAR 0033
ENCODING 51
SWIDTH 720 0
DWIDTH 12 0
BBX 10 16 0 0
BITMAP
FFC0
FFC0
FFC0
E1C0
E1C0
01C0
1F80
1F80
1F80
01C0
01C0
E1C0
E1C0
FFC0
FFC0
7F80
ENDCHAR
STARTCHAR 0034
ENCODING 52
SWIDTH 720 0
DWIDTH 12 0
BBX 10 16 0 0
BITMAP
6000
E1C0
E1C0
E1C0
E1C0
E1C0
FFC0
FFC0
FFC0
01C0
01C0
01C0
01C0
01C0
01C0
01C0
ENDCHAR
STARTCHAR 0035
ENCODING 53
SWIDTH 720 0
DWIDTH 12 0
BBX 10 16 0 0
BITMAP
FFC0
FFC0
FFC0
E000
E000
E000
FF80
FFC0
FFC0
01C0
01C0
E1C0
E1C0
FFC0
FFC0
7F80
ENDCHAR
STARTCHAR 0036
ENCODING 54
SWIDTH 720 0
DWIDTH 12 0
BBX 10 16 0 0
BITMAP
FFC0
FFC0
FFC0
E1C0
E1C0
E000
FF80
FFC0
FFC0
E1C0
E1C0
E1C0
E1C0
FFC0
FFC0
7F80
ENDCHAR
STARTCHAR 0037
ENCODING 55
SWIDTH 720 0
DWIDTH 12 0
BBX 10 16 0 0
BITMAP
7F80
FFC0
FFC0
E1C0
E1C0
E1C0
01C0
01C0
01C0
01C0
01C0
01C0
01C0
01C0
01C0
01C0
ENDCHAR
STARTCHAR 0038
ENCODING 56
SWIDTH 720 0
DWIDTH 12 0
BBX 10 16 0 0
BITMAP
FFC0
FFC0
FFC0
E1C0
E1C0
E1C0
7F80
7F80
7F80
E1C0
E1C0
E1C0
E1C0
FFC0
FFC0
7F80
ENDCHAR
STARTCHAR 0039
ENCODING 57
SWIDTH 720 0
DWIDTH 12 0
BBX 10 16 0 0
BITMAP
FFC0
FFC0
FFC0
E1C0
E1C0
E1C0
FFC0
FFC0
7FC0
01C0
01C0
E1C0
E1C0
FFC0
FFC0
7F80
ENDCHAR
STARTCHAR 003A
ENCODING 58
SWIDTH 300 0
DWIDTH 5 0
BBX 3 9 0 4
BITMAP
E0
E0
E0
00
00
00
E0
E0
E0
ENDCHAR
STARTCHAR 003B
ENCODING 59
SWIDTH 300 0
DWIDTH 5 0
BBX 3 16 0 -3
BITMAP
E0
E0
E0
00
00
00
00
00
00
00
C0
E0
E0
60
60
60
ENDCHAR
STARTCHAR 003C
ENCODING 60
SWIDTH 480 0
DWIDTH 8 0
BBX 7 11 0 3
BITMAP
04
0A
3E
3C
78
F0
78
3C
3E
1E
04
ENDCHAR
STARTCHAR 003D
ENCODING 61
SWIDTH 720 0
DWIDTH 12 0
BBX 10 8 0 4
BITMAP
7F80
FFC0
FFC0
0000
0000
FFC0
FFC0
7F80
ENDCHAR
STARTCHAR 003E
ENCODING 62
SWIDTH 540 0
DWIDTH 9 0
BBX 7 11 0 3
BITMAP
40
A0
F8
78
3C
1E
3C
78
F8
F0
40
ENDCHAR
STARTCHAR 003F
ENCODING 63
SWIDTH 780 0
DWIDTH 13 0
BBX 11 16 0 0
BITMAP
7FC0
FFE0
FFE0
E0E0
E0E0
00E0
07E0
0FE0
0FE0
0FC0
0E00
0000
0000
0E00
0E00
0E00
ENDCHAR
STARTCHAR 0040
ENCODING 64
SWIDTH 840 0
DWIDTH 14 0
BBX 12 16 0 0
BITMAP
FFF0
FFF0
FFF0
E070
E070
E070
E070
E070
E7F0
E7F0
E3E0
E000
E000
FFF0
FFF0
7FE0
ENDCHAR
STARTCHAR 0041
ENCODING 65
SWIDTH 720 0
DWIDTH 12 0
BBX 10 16 0 0
BITMAP
7F80
FFC0
FFC0
E1C0
E1C0
E1C0
FFC0
FFC0
FFC0
E1C0
E1C0
E1C0
E1C0
E1C0
E1C0
E1C0
ENDCHAR
STARTCHAR 0042
ENCODING 66
SWIDTH 720 0
DWIDTH 12 0
BBX 10 16 0 0
BITMAP
FFC0
FFC0
FFC0
E1C0
E1C0
E1C0
FF80
FF80
FF80
E1C0
E1C0
E1C0
E1C0
FFC0
FFC0
FF80
ENDCHAR
STARTCHAR 0043
ENCODING 67
SWIDTH 720 0
DWIDTH 12 0
BBX 10 16 0 0
BITMAP
FFC0
FFC0
FFC0
E1C0
E1C0
E000
E000
E000
E000
E000
E000
E1C0
E1C0
FFC0
FFC0
7F80
ENDCHAR
STARTCHAR 0044
ENCODING 68
SWIDTH 720 0
DWIDTH 12 0
BBX 10 16 0 0
BITMAP
FFC0
FFC0
FFC0
E1C0
E1C0
E1C0
E1C0
E1C0
E1C0
E1C0
E1C0
E1C0
E1C0
FFC0
FFC0
FF80
ENDCHAR
STARTCHAR 0045
ENCODING 69
SWIDTH 720 0
DWIDTH 12 0
BBX 10 16 0 0
BITMAP
FFC0
FFC0
FFC0
E000
E000
E000
FF80
FF80
FF80
E000
E000
E000
E000
FFC0
FFC0
7F80
ENDCHAR
STARTCHAR 0046
ENCODING 70
SWIDTH 720 0
DWIDTH 12 0
BBX 10 16 0 0
BITMAP
FFC0
FFC0
FFC0
E000
E000
E000
FF80
FF80
FF80
E000
E000
E000
E000
E000
E000
E000
ENDCHAR
STARTCHAR 0047
ENCODING 71
SWIDTH 720 0
DWIDTH 12 0
BBX 10 16 0 0
BITMAP
FF80
FF80
FF80
E000
E000
E000
E780
E7C0
E7C0
E1C0
E1C0
E1C0
E1C0
FFC0
FFC0
7F80
ENDCHAR
STARTCHAR 0048
ENCODING 72
SWIDTH 720 0
DWIDTH 12 0
BBX 10 16 0 0
BITMAP
6180
E1C0
E1C0
E1C0
E1C0
E1C0
FFC0
FFC0
FFC0
E1C0
E1C0
E1C0
E1C0
E1C0
E1C0
E1C0
ENDCHAR
STARTCHAR 0049
ENCODING 73
SWIDTH 720 0
DWIDTH 12 0
BBX 10 16 0 0
BITMAP
7F80
FFC0
FFC0
0E00
0E00
0E00
0E00
0E00
0E00
0E00
0E00
0E00
0E00
FFC0
FFC0
FFC0
ENDCHAR
STARTCHAR 004A
ENCODING 74
SWIDTH 720 0
DWIDTH 12 0
BBX 10 16 0 0
BITMAP
7FC0
FFC0
FFC0
E1C0
E1C0
01C0
01C0
01C0
01C0
01C0
E1C0
E1C0
E1C0
FFC0
FFC0
7F80
ENDCHAR
STARTCHAR 004B
ENCODING 75
SWIDTH 720 0
DWIDTH 12 0
BBX 10 16 0 0
BITMAP
6180
E1C0
E1C0
E1C0
E3C0
E780
FF80
FF00
FF80
E780
E3C0
E1C0
E1C0
E1C0
E1C0
E1C0
ENDCHAR
STARTCHAR 004C
ENCODING 76
SWIDTH 720 0
DWIDTH 12 0
BBX 10 16 0 0
BITMAP
6000
E000
E000
E000
E000
E000
E000
E000
E000
E000
E000
E000
E000
FFC0
FFC0
FFC0
ENDCHAR
STARTCHAR 004D
ENCODING 77
SWIDTH 840 0
DWIDTH 14 0
BBX 12 16 0 0
BITMAP
6060
E070
E070
F0F0
FFF0
FFF0
FFF0
EF70
E670
E670
E670
E070
E070
E070
E070
E070
ENDCHAR
STARTCHAR 004E
ENCODING 78
SWIDTH 720 0
DWIDTH 12 0
BBX 10 16 0 0
BITMAP
6180
E1C0
E1C0
E1C0
E1C0
F9C0
FDC0
FFC0
FFC0
E7C0
E3C0
E1C0
E1C0
E1C0
E1C0
E1C0
ENDCHAR
STARTCHAR 004F
ENCODING 79
SWIDTH 720 0
DWIDTH 12 0
BBX 10 16 0 0
BITMAP
FFC0
FFC0
FFC0
E1C0
E1C0
E1C0
E1C0
E1C0
E1C0
E1C0
E1C0
E1C0
E1C0
FFC0
FFC0
7F80
ENDCHAR
STARTCHAR 0050
ENCODING 80
SWIDTH 720 0
DWIDTH 12 0
BBX 10 16 0 0
BITMAP
7F80
FFC0
FFC0
E1C0
E1C0
E1C0
FFC0
FFC0
FFC0
E000
E000
E000
E000
E000
E000
E000
ENDCHAR
STARTCHAR 0051
ENCODING 81
SWIDTH 720 0
DWIDTH 12 0
BBX 10 16 0 0
BITMAP
FFC0
FFC0
FFC0
E1C0
E1C0
E1C0
E1C0
E1C0
E1C0
E3C0
E5C0
E7C0
E7C0
FFC0
FFC0
7F80
ENDCHAR
STARTCHAR 0052
ENCODING 82
SWIDTH 720 0
DWIDTH 12 0
BBX 10 16 0 0
BITMAP
7F80
FFC0
FFC0
E1C0
E1C0
E1C0
FFC0
FFC0
FF80
E780
E3C0
E1C0
E1C0
E1C0
E1C0
E1C0
ENDCHAR
STARTCHAR 0053
ENCODING 83
SWIDTH 720 0
DWIDTH 12 0
BBX 10 16 0 0
BITMAP
7F80
FFC0
FFC0
E1C0
E1C0
E000
FF80
FFC0
FFC0
01C0
01C0
E1C0
E1C0
FFC0
FFC0
7F80
ENDCHAR
STARTCHAR 0054
ENCODING 84
SWIDTH 720 0
DWIDTH 12 0
BBX 11 16 0 0
BITMAP
7FC0
FFE0
FFE0
0E00
0E00
0E00
0E00
0E00
0E00
0E00
0E00
0E00
0E00
0E00
0E00
0E00
ENDCHAR
STARTCHAR 0055
ENCODING 85
SWIDTH 720 0
DWIDTH 12 0
BBX 10 16 0 0
BITMAP
E1C0
E1C0
E1C0
E1C0
E1C0
E1C0
E1C0
E1C0
E1C0
E1C0
E1C0
E1C0
E1C0
FFC0
FFC0
7F80
ENDCHAR
STARTCHAR 0056
ENCODING 86
SWIDTH 720 0
DWIDTH 12 0
BBX 10 16 0 0
BITMAP
6180
E1C0
E1C0
E1C0
E1C0
E1C0
E1C0
E1C0
E1C0
E1C0
E1C0
E1C0
F3C0
7F80
3F00
1E00
ENDCHAR
STARTCHAR 0057
ENCODING 87
SWIDTH 840 0
DWIDTH 14 0
BBX 12 16 0 0
BITMAP
E070
E070
E070
E670
E670
E670
E670
E670
E670
E670
E670
E670
E670
FFF0
FFF0
7FE0
ENDCHAR
STARTCHAR 0058
ENCODING 88
SWIDTH 720 0
DWIDTH 12 0
BBX 10 16 0 0
BITMAP
6180
E1C0
E1C0
E1C0
F3C0
7F80
3F80
1F00
3F80
7F80
F3C0
E1C0
E1C0
E1C0
E1C0
E1C0
ENDCHAR
STARTCHAR 0059
ENCODING 89
SWIDTH 780 0
DWIDTH 13 0
BBX 11 16 0 0
BITMAP
60C0
E0E0
E0E0
E0E0
FBE0
7FC0
7FC0
3F80
0E00
0E00
0E00
0E00
0E00
0E00
0E00
0E00
ENDCHAR
STARTCHAR 005A
ENCODING 90
SWIDTH 720 0
DWIDTH 12 0
BBX 10 16 0 0
BITMAP
7F80
FFC0
FFC0
01C0
01C0
0780
0F80
1F00
3E00
7800
F000
E000
E000
FFC0
FFC0
7F80
ENDCHAR
STARTCHAR 005B
ENCODING 91
SWIDTH 480 0
DWIDTH 8 0
BBX 7 16 0 0
BITMAP
FE
FE
FE
E0
E0
E0
E0
E0
E0
E0
E0
E0
E0
FE
FE
7C
ENDCHAR
STARTCHAR 005C
ENCODING 92
SWIDTH 840 0
DWIDTH 14 0
BBX 12 16 0 0
BITMAP
6000
E000
E000
E000
F000
7C00
7E00
1F00
0F80
03E0
01E0
00F0
0070
0070
0070
0070
ENDCHAR
STARTCHAR 005D
ENCODING 93
SWIDTH 720 0
DWIDTH 12 0
BBX 7 16 0 0
BITMAP
FE
FE
FE
0E
0E
0E
0E
0E
0E
0E
0E
0E
0E
FE
FE
7C
ENDCHAR
STARTCHAR 005E
ENCODING 94
SWIDTH 780 0
DWIDTH 13 0
BBX 12 6 0 10
BITMAP
0F00
1F00
3F80
3FC0
F1F0
60E0
ENDCHAR
STARTCHAR 005F
ENCODING 95
SWIDTH 720 0
DWIDTH 12 0
BBX 10 3 0 0
BITMAP
7F80
FFC0
FFC0
ENDCHAR
STARTCHAR 0060
ENCODING 96
SWIDTH 480 0
DWIDTH 8 0
BBX 7 4 0 12
BITMAP
E0
70
3C
1E
ENDCHAR
STARTCHAR 0061
ENCODING 97
SWIDTH 720 0
DWIDTH 12 0
BBX 10 13 0 0
BITMAP
7F80
FFC0
FFC0
01C0
01C0
FFC0
FFC0
FFC0
E1C0
E1C0
FFC0
FFC0
7FC0
ENDCHAR
STARTCHAR 0062
ENCODING 98
SWIDTH 720 0
DWIDTH 12 0
BBX 10 16 0 0
BITMAP
6000
E000
E000
FF80
FFC0
FFC0
E1C0
E1C0
E1C0
E1C0
E1C0
E1C0
E1C0
FFC0
FFC0
FF80
ENDCHAR
STARTCHAR 0063
ENCODING 99
SWIDTH 720 0
DWIDTH 12 0
BBX 10 13 0 0
BITMAP
7F80
FFC0
FFC0
E1C0
E1C0
E000
E000
E000
E1C0
E1C0
FFC0
FFC0
7F80
ENDCHAR
STARTCHAR 0064
ENCODING 100
SWIDTH 720 0
DWIDTH 12 0
BBX 10 16 0 0
BITMAP
01C0
01C0
01C0
7FC0
FFC0
FFC0
E1C0
E1C0
E1C0
E1C0
E1C0
E1C0
E1C0
FFC0
FFC0
7FC0
ENDCHAR
STARTCHAR 0065
ENCODING 101
SWIDTH 720 0
DWIDTH 12 0
BBX 10 13 0 0
BITMAP
7F80
FFC0
FFC0
E1C0
E1C0
FFC0
FFC0
FFC0
E000
E000
FFC0
FFC0
7FC0
ENDCHAR
STARTCHAR 0066
ENCODING 102
SWIDTH 600 0
DWIDTH 10 0
BBX 9 16 0 0
BITMAP
3F80
3F80
3F80
3800
3800
FF00
FF00
FF00
3800
3800
3800
3800
3800
3800
3800
3800
ENDCHAR
STARTCHAR 0067
ENCODING 103
SWIDTH 720 0
DWIDTH 12 0
BBX 10 18 0 -5
BITMAP
7F80
FFC0
FFC0
E1C0
E1C0
E1C0
E1C0
E1C0
E1C0
E1C0
FFC0
FFC0
7FC0
01C0
01C0
7FC0
7FC0
3F80
ENDCHAR
STARTCHAR 0068
ENCODING 104
SWIDTH 720 0
DWIDTH 12 0
BBX 10 16 0 0
BITMAP
E000
E000
E000
FF80
FFC0
FFC0
E1C0
E1C0
E1C0
E1C0
E1C0
E1C0
E1C0
E1C0
E1C0
E1C0
ENDCHAR
STARTCHAR 0069
ENCODING 105
SWIDTH 540 0
DWIDTH 9 0
BBX 7 16 0 0
BITMAP
18
38
00
7C
FE
FE
38
38
38
38
38
38
38
FE
FE
FE
ENDCHAR
STARTCHAR 006A
ENCODING 106
SWIDTH 540 0
DWIDTH 9 0
BBX 7 21 0 -5
BITMAP
06
0E
00
06
0E
0E
0E
0E
0E
0E
0E
0E
0E
0E
0E
0E
0E
0E
FE
FE
7C
ENDCHAR
STARTCHAR 006B
ENCODING 107
SWIDTH 720 0
DWIDTH 12 0
BBX 10 16 0 0
BITMAP
E000
E000
E000
E1C0
E1C0
E1C0
E3C0
E780
FF80
FF00
FF80
E780
E3C0
E1C0
E1C0
E1C0
ENDCHAR
STARTCHAR 006C
ENCODING 108
SWIDTH 300 0
DWIDTH 5 0
BBX 3 16 0 0
BITMAP
E0
E0
E0
E0
E0
E0
E0
E0
E0
E0
E0
E0
E0
E0
E0
E0
ENDCHAR
STARTCHAR 006D
ENCODING 109
SWIDTH 840 0
DWIDTH 14 0
BBX 12 13 0 0
BITMAP
7FE0
FFF0
FFF0
E670
E670
E670
E670
E670
E670
E670
E670
E670
E670
ENDCHAR
STARTCHAR 006E
ENCODING 110
SWIDTH 720 0
DWIDTH 12 0
BBX 10 13 0 0
BITMAP
7F80
FFC0
FFC0
E1C0
E1C0
E1C0
E1C0
E1C0
E1C0
E1C0
E1C0
E1C0
E1C0
ENDCHAR
STARTCHAR 006F
ENCODING 111
SWIDTH 720 0
DWIDTH 12 0
BBX 10 13 0 0
BITMAP
7F80
FFC0
FFC0
E1C0
E1C0
E1C0
E1C0
E1C0
E1C0
E1C0
FFC0
FFC0
7F80
ENDCHAR
STARTCHAR 0070
ENCODING 112
SWIDTH 720 0
DWIDTH 12 0
BBX 10 18 0 -5
BITMAP
7F80
FFC0
FFC0
E1C0
E1C0
E1C0
E1C0
E1C0
E1C0
E1C0
FFC0
FFC0
FF80
E000
E000
E000
E000
E000
ENDCHAR
STARTCHAR 0071
ENCODING 113
SWIDTH 720 0
DWIDTH 12 0
BBX 10 18 0 -5
BITMAP
7F80
FFC0
FFC0
E1C0
E1C0
E1C0
E1C0
E1C0
E1C0
E1C0
FFC0
FFC0
7FC0
01C0
01C0
01C0
01C0
01C0
ENDCHAR
STARTCHAR 0072
ENCODING 114
SWIDTH 720 0
DWIDTH 12 0
BBX 10 13 0 0
BITMAP
7F80
FFC0
FFC0
E1C0
E1C0
E000
E000
E000
E000
E000
E000
E000
E000
ENDCHAR
STARTCHAR 0073
ENCODING 115
SWIDTH 720 0
DWIDTH 12 0
BBX 10 13 0 0
BITMAP
7F80
FFC0
FFC0
E000
E000
FFC0
FFC0
FFC0
01C0
01C0
FFC0
FFC0
7F80
ENDCHAR
STARTCHAR 0074
ENCODING 116
SWIDTH 600 0
DWIDTH 10 0
BBX 9 16 0 0
BITMAP
3800
3800
3800
3800
3800
FF00
FF00
FF00
3800
3800
3800
3800
3800
3F80
3F80
1F00
ENDCHAR
STARTCHAR 0075
ENCODING 117
SWIDTH 720 0
DWIDTH 12 0
BBX 10 13 0 0
BITMAP
6180
E1C0
E1C0
E1C0
E1C0
E1C0
E1C0
E1C0
E1C0
E1C0
FFC0
FFC0
7F80
ENDCHAR
STARTCHAR 0076
ENCODING 118
SWIDTH 720 0
DWIDTH 12 0
BBX 10 13 0 0
BITMAP
6180
E1C0
E1C0
E1C0
E1C0
E1C0
E1C0
E1C0
E1C0
F3C0
7F80
7F80
1E00
ENDCHAR
STARTCHAR 0077
ENCODING 119
SWIDTH 840 0
DWIDTH 14 0
BBX 12 13 0 0
BITMAP
6060
E070
E070
E670
E670
E670
E670
E670
E670
E670
FFF0
FFF0
7FE0
ENDCHAR
STARTCHAR 0078
ENCODING 120
SWIDTH 780 0
DWIDTH 13 0
BBX 11 13 0 0
BITMAP
60C0
E0E0
FBE0
7FC0
7FC0
3F80
0E00
3F80
7FC0
7FC0
E0E0
E0E0
E0E0
ENDCHAR
STARTCHAR 0079
ENCODING 121
SWIDTH 720 0
DWIDTH 12 0
BBX 10 18 0 -5
BITMAP
6180
E1C0
E1C0
E1C0
E1C0
E1C0
E1C0
E1C0
E1C0
E1C0
FFC0
FFC0
7FC0
01C0
01C0
7FC0
7FC0
3F80
ENDCHAR
STARTCHAR 007A
ENCODING 122
SWIDTH 720 0
DWIDTH 12 0
BBX 10 13 0 0
BITMAP
7F80
BFC0
FFC0
03C0
0780
0F00
3F00
3C00
7800
F000
FFC0
FFC0
FFC0
ENDCHAR
STARTCHAR 007B
ENCODING 123
SWIDTH 600 0
DWIDTH 10 0
BBX 9 16 0 0
BITMAP
3F80
3F80
3F80
3800
3800
3800
7800
F800
F800
3800
3800
3800
3800
3F80
3F80
1F00
ENDCHAR
STARTCHAR 007C
ENCODING 124
SWIDTH 300 0
DWIDTH 5 0
BBX 3 16 0 0
BITMAP
E0
E0
E0
E0
E0
E0
E0
E0
E0
E0
E0
E0
E0
E0
E0
E0
ENDCHAR
STARTCHAR 007D
ENCODING 125
SWIDTH 660 0
DWIDTH 11 0
BBX 9 16 0 0
BITMAP
FE00
FE00
FE00
0E00
0E00
0E00
0F00
0F80
0F80
0E00
0E00
0E00
0E00
FE00
FE00
7C00
ENDCHAR
STARTCHAR 007E
ENCODING 126
SWIDTH 900 0
DWIDTH 15 0
BBX 14 6 0 10
BITMAP
1E3C
1F7C
3FF8
F3E0
E1C0
6080
ENDCHAR
STARTCHAR 00A0
ENCODING 160
SWIDTH 720 0
DWIDTH 12 0
BBX 0 0 0 0
BITMAP
ENDCHAR
STARTCHAR 00A1
ENCODING 161
SWIDTH 540 0
DWIDTH 9 0
BBX 7 16 0 0
BITMAP
18
38
00
7C
FE
FE
38
38
38
38
38
38
38
FE
FE
FE
ENDCHAR
STARTCHAR 00A2
ENCODING 162
SWIDTH 840 0
DWIDTH 14 0
BBX 12 16 0 -1
BITMAP
0600
0600
7FE0
FFF0
FFF0
E670
E670
E600
E600
E600
E670
E670
FFF0
FFF0
7FE0
0600
ENDCHAR
STARTCHAR 00A3
ENCODING 163
SWIDTH 600 0
DWIDTH 10 0
BBX 9 16 0 0
BITMAP
1F00
3F80
3F80
3800
3800
FF00
FF00
FF00
3800
3800
3800
3800
3800
FF00
FF00
FF00
ENDCHAR
STARTCHAR 00A4
ENCODING 164
SWIDTH 600 0
DWIDTH 10 0
BBX 8 8 0 4
BITMAP
C3
7E
3E
26
26
3E
C3
C1
ENDCHAR
STARTCHAR 00A5
ENCODING 165
SWIDTH 780 0
DWIDTH 13 0
BBX 11 16 0 0
BITMAP
60C0
E0E0
E0E0
E0E0
FBE0
7FC0
7FC0
3F80
0E00
FFE0
FFE0
0E00
0E00
FFE0
FFE0
0E00
ENDCHAR
STARTCHAR 00A6
ENCODING 166
SWIDTH 300 0
DWIDTH 5 0
BBX 3 16 0 0
BITMAP
60
E0
E0
E0
E0
E0
E0
00
00
E0
E0
E0
E0
E0
E0
E0
ENDCHAR
STARTCHAR 00A7
ENCODING 167
SWIDTH 720 0
DWIDTH 12 0
BBX 10 16 0 0
BITMAP
FFC0
FFC0
FFC0
E000
E000
FFC0
FFC0
E1C0
E1C0
FFC0
7FC0
01C0
01C0
FFC0
FFC0
7F80
ENDCHAR
STARTCHAR 00A8
ENCODING 168
SWIDTH 600 0
DWIDTH 10 0
BBX 8 3 0 13
BITMAP
E7
E7
E7
ENDCHAR
STARTCHAR 00A9
ENCODING 169
SWIDTH 840 0
DWIDTH 14 0
BBX 12 16 0 0
BITMAP
FFF0
FFF0
FFF0
E070
E070
EF70
E970
E870
E970
EF70
E070
E070
E070
FFF0
FFF0
7FE0
ENDCHAR
STARTCHAR 00AA
ENCODING 170
SWIDTH 480 0
DWIDTH 8 0
BBX 6 9 0 8
BITMAP
78
7C
0C
7C
FC
CC
CC
7C
7C
ENDCHAR
STARTCHAR 00AB
ENCODING 171
SWIDTH 780 0
DWIDTH 13 0
BBX 12 13 0 2
BITMAP
0420
0A50
0E70
39C0
7380
F780
E700
E700
7380
3180
1CE0
0E70
0E70
ENDCHAR
STARTCHAR 00AC
ENCODING 172
SWIDTH 720 0
DWIDTH 12 0
BBX 10 6 0 10
BITMAP
7F80
FFC0
FFC0
01C0
01C0
01C0
ENDCHAR
STARTCHAR 00AD
ENCODING 173
SWIDTH 720 0
DWIDTH 12 0
BBX 10 3 0 7
BITMAP
7F80
FFC0
FFC0
ENDCHAR
STARTCHAR 00AE
ENCODING 174
SWIDTH 840 0
DWIDTH 14 0
BBX 12 16 0 0
BITMAP
FFF0
FFF0
FFF0
E070
E070
E070
EE70
EA70
EC70
EA70
E070
E070
E070
FFF0
FFF0
7FE0
ENDCHAR
STARTCHAR 00B0
ENCODING 176
SWIDTH 420 0
DWIDTH 7 0
BBX 5 5 0 11
BITMAP
70
F8
D8
F8
70
ENDCHAR
STARTCHAR 00B1
ENCODING 177
SWIDTH 720 0
DWIDTH 12 0
BBX 11 15 0 0
BITMAP
0E00
0E00
0E00
0E00
7FC0
FFE0
FFE0
0E00
0E00
0E00
0000
0000
7FC0
FFE0
FFE0
ENDCHAR
STARTCHAR 00B2
ENCODING 178
SWIDTH 420 0
DWIDTH 7 0
BBX 5 7 0 10
BITMAP
F8
F8
18
F8
F8
F8
F8
ENDCHAR
STARTCHAR 00B3
ENCODING 179
SWIDTH 420 0
DWIDTH 7 0
BBX 5 7 0 10
BITMAP
F8
F8
18
78
78
F8
F8
ENDCHAR
STARTCHAR 00B4
ENCODING 180
SWIDTH 480 0
DWIDTH 8 0
BBX 7 4 0 12
BITMAP
1E
38
70
E0
ENDCHAR
STARTCHAR 00B5
ENCODING 181
SWIDTH 840 0
DWIDTH 14 0
BBX 12 17 0 -1
BITMAP
6060
E070
E070
E070
E070
E070
E070
E070
F0F0
FFF0
FFF0
FFF0
EF70
E670
E670
E670
E000
ENDCHAR
STARTCHAR 00B6
ENCODING 182
SWIDTH 840 0
DWIDTH 14 0
BBX 12 16 0 0
BITMAP
7FE0
BFF0
FFF0
F9C0
79C0
39C0
39C0
39C0
39C0
39C0
39C0
39C0
39C0
39C0
39C0
39C0
ENDCHAR
STARTCHAR 00B7
ENCODING 183
SWIDTH 300 0
DWIDTH 5 0
BBX 3 3 0 7
BITMAP
E0
E0
E0
ENDCHAR
STARTCHAR 00B8
ENCODING 184
SWIDTH 420 0
DWIDTH 7 0
BBX 5 5 0 -5
BITMAP
C0
F0
F8
F8
F0
ENDCHAR
STARTCHAR 00B9
ENCODING 185
SWIDTH 420 0
DWIDTH 7 0
BBX 5 7 0 10
BITMAP
E0
E0
60
60
60
F8
F8
ENDCHAR
STARTCHAR 00BA
ENCODING 186
SWIDTH 420 0
DWIDTH 7 0
BBX 5 7 0 10
BITMAP
F8
F8
D8
D8
D8
F8
F8
ENDCHAR
STARTCHAR 00BB
ENCODING 187
SWIDTH 840 0
DWIDTH 14 0
BBX 12 13 0 2
BITMAP
4200
C500
E700
39C0
3CE0
1EF0
0E70
0E70
3CE0
38C0
7380
C700
C700
ENDCHAR
STARTCHAR 00BC
ENCODING 188
SWIDTH 840 0
DWIDTH 14 0
BBX 12 17 0 0
BITMAP
E000
E000
6000
6030
6070
60E0
F980
0300
0600
0C00
1800
3330
6330
C3F0
83F0
0030
0030
ENDCHAR
STARTCHAR 00BD
ENCODING 189
SWIDTH 780 0
DWIDTH 13 0
BBX 11 17 0 0
BITMAP
E000
E000
6000
6060
60E0
60C0
F980
0700
0600
0C00
1800
33E0
6060
C3E0
83E0
03E0
03E0
ENDCHAR
STARTCHAR 00BE
ENCODING 190
SWIDTH 840 0
DWIDTH 14 0
BBX 12 16 0 0
BITMAP
F800
F800
7830
7870
1860
F8C0
0380
0700
0C00
1800
11B0
61B0
E1F0
C1F0
0030
0030
ENDCHAR
STARTCHAR 00BF
ENCODING 191
SWIDTH 780 0
DWIDTH 13 0
BBX 11 16 0 0
BITMAP
0600
0E00
0E00
0000
0000
0E00
7E00
FE00
FE00
FC00
E000
E0E0
E0E0
FFE0
FFE0
7FC0
ENDCHAR
STARTCHAR 00C0
ENCODING 192
SWIDTH 720 0
DWIDTH 12 0
BBX 10 19 0 0
BITMAP
7800
1E00
0000
7F80
FFC0
FFC0
E1C0
E1C0
E1C0
FFC0
FFC0
FFC0
E1C0
E1C0
E1C0
E1C0
E1C0
E1C0
E1C0
ENDCHAR
STARTCHAR 00C1
ENCODING 193
SWIDTH 720 0
DWIDTH 12 0
BBX 10 19 0 0
BITMAP
0780
1E00
0000
7F80
FFC0
FFC0
E1C0
E1C0
E1C0
FFC0
FFC0
FFC0
E1C0
E1C0
E1C0
E1C0
E1C0
E1C0
E1C0
ENDCHAR
STARTCHAR 00C2
ENCODING 194
SWIDTH 720 0
DWIDTH 12 0
BBX 10 20 0 0
BITMAP
1E00
3F00
7380
0000
7F80
FFC0
FFC0
E1C0
E1C0
E1C0
FFC0
FFC0
FFC0
E1C0
E1C0
E1C0
E1C0
E1C0
E1C0
E1C0
ENDCHAR
STARTCHAR 00C3
ENCODING 195
SWIDTH 720 0
DWIDTH 12 0
BBX 10 20 0 0
BITMAP
3C80
7F80
6780
0000
7F80
FFC0
FFC0
E1C0
E1C0
E1C0
FFC0
FFC0
FFC0
E1C0
E1C0
E1C0
E1C0
E1C0
E1C0
E1C0
ENDCHAR
STARTCHAR 00C4
ENCODING 196
SWIDTH 720 0
DWIDTH 12 0
BBX 10 19 0 0
BITMAP
3180
7380
0000
7F80
FFC0
FFC0
E1C0
E1C0
E1C0
FFC0
FFC0
FFC0
E1C0
E1C0
E1C0
E1C0
E1C0
E1C0
E1C0
ENDCHAR
STARTCHAR 00C5
ENCODING 197
SWIDTH 720 0
DWIDTH 12 0
BBX 10 19 0 0
BITMAP
3F00
1E00
0000
7F80
FFC0
FFC0
E1C0
E1C0
E1C0
FFC0
FFC0
FFC0
E1C0
E1C0
E1C0
E1C0
E1C0
E1C0
E1C0
ENDCHAR
STARTCHAR 00C6
ENCODING 198
SWIDTH 900 0
DWIDTH 15 0
BBX 14 16 0 0
BITMAP
FFFC
FFFC
FFFC
E700
E700
E700
FFF0
FFF0
FFF0
E700
E700
E700
E700
E7FC
E7FC
E7F8
ENDCHAR
STARTCHAR 00C7
ENCODING 199
SWIDTH 720 0
DWIDTH 12 0
BBX 10 21 0 -5
BITMAP
7F80
FFC0
FFC0
E1C0
E1C0
E000
E000
E000
E000
E000
E000
E1C0
E1C0
FFC0
FFC0
FFC0
1800
1F00
1F80
1F80
1F00
ENDCHAR
STARTCHAR 00C8
ENCODING 200
SWIDTH 720 0
DWIDTH 12 0
BBX 10 19 0 0
BITMAP
7800
1E00
0000
FFC0
FFC0
FFC0
E000
E000
E000
FF80
FF80
FF80
E000
E000
E000
E000
FFC0
FFC0
7F80
ENDCHAR
STARTCHAR 00C9
ENCODING 201
SWIDTH 720 0
DWIDTH 12 0
BBX 10 20 0 0
BITMAP
0780
0F80
1E00
0000
FFC0
FFC0
FFC0
E000
E000
E000
FF80
FF80
FF80
E000
E000
E000
E000
FFC0
FFC0
7F80
ENDCHAR
STARTCHAR 00CA
ENCODING 202
SWIDTH 720 0
DWIDTH 12 0
BBX 10 20 0 0
BITMAP
1E00
3F00
7380
0000
FFC0
FFC0
FFC0
E000
E000
E000
FF80
FF80
FF80
E000
E000
E000
E000
FFC0
FFC0
7F80
ENDCHAR
STARTCHAR 00CB
ENCODING 203
SWIDTH 720 0
DWIDTH 12 0
BBX 10 19 0 0
BITMAP
3180
7380
0000
FFC0
FFC0
FFC0
E000
E000
E000
FF00
FF00
FF00
E000
E000
E000
E000
FFC0
FFC0
7F80
ENDCHAR
STARTCHAR 00CC
ENCODING 204
SWIDTH 720 0
DWIDTH 12 0
BBX 10 19 0 0
BITMAP
3C00
0E00
0000
7F80
FFC0
FFC0
0E00
0E00
0E00
0E00
0E00
0E00
0E00
0E00
0E00
0E00
FFC0
FFC0
FFC0
ENDCHAR
STARTCHAR 00CD
ENCODING 205
SWIDTH 720 0
DWIDTH 12 0
BBX 10 19 0 0
BITMAP
0780
0E00
0000
7F80
FFC0
FFC0
0E00
0E00
0E00
0E00
0E00
0E00
0E00
0E00
0E00
0E00
FFC0
FFC0
FFC0
ENDCHAR
STARTCHAR 00CE
ENCODING 206
SWIDTH 720 0
DWIDTH 12 0
BBX 10 20 0 0
BITMAP
0E00
1F00
3B80
0000
7F80
FFC0
FFC0
0E00
0E00
0E00
0E00
0E00
0E00
0E00
0E00
0E00
0E00
FFC0
FFC0
FFC0
ENDCHAR
STARTCHAR 00CF
ENCODING 207
SWIDTH 720 0
DWIDTH 12 0
BBX 10 19 0 0
BITMAP
3180
7380
0000
7F80
FFC0
FFC0
0E00
0E00
0E00
0E00
0E00
0E00
0E00
0E00
0E00
0E00
FFC0
FFC0
FFC0
ENDCHAR
STARTCHAR 00D0
ENCODING 208
SWIDTH 840 0
DWIDTH 14 0
BBX 12 16 0 0
BITMAP
3FF0
3FF0
3FF0
3870
3870
3870
FE70
FE70
FE70
3870
3870
3870
3870
3FF0
3FF0
3FE0
ENDCHAR
STARTCHAR 00D1
ENCODING 209
SWIDTH 720 0
DWIDTH 12 0
BBX 10 20 0 0
BITMAP
3C80
7F80
6780
0000
6180
E1C0
E1C0
E1C0
E1C0
F9C0
FDC0
FFC0
FFC0
E7C0
E3C0
E1C0
E1C0
E1C0
E1C0
E1C0
ENDCHAR
STARTCHAR 00D2
ENCODING 210
SWIDTH 720 0
DWIDTH 12 0
BBX 10 19 0 0
BITMAP
7800
1E00
0000
FFC0
FFC0
FFC0
E1C0
E1C0
E1C0
E1C0
E1C0
E1C0
E1C0
E1C0
E1C0
E1C0
FFC0
FFC0
7F80
ENDCHAR
STARTCHAR 00D3
ENCODING 211
SWIDTH 720 0
DWIDTH 12 0
BBX 10 19 0 0
BITMAP
0780
1E00
0000
FFC0
FFC0
FFC0
E1C0
E1C0
E1C0
E1C0
E1C0
E1C0
E1C0
E1C0
E1C0
E1C0
FFC0
FFC0
7F80
ENDCHAR
STARTCHAR 00D4
ENCODING 212
SWIDTH 720 0
DWIDTH 12 0
BBX 10 20 0 0
BITMAP
1E00
3F00
7380
0000
FFC0
FFC0
FFC0
E1C0
E1C0
E1C0
E1C0
E1C0
E1C0
E1C0
E1C0
E1C0
E1C0
FFC0
FFC0
7F80
ENDCHAR
STARTCHAR 00D5
ENCODING 213
SWIDTH 720 0
DWIDTH 12 0
BBX 10 20 0 0
BITMAP
3C80
7F80
6780
0000
FFC0
FFC0
FFC0
E1C0
E1C0
E1C0
E1C0
E1C0
E1C0
E1C0
E1C0
E1C0
E1C0
FFC0
FFC0
7F80
ENDCHAR
STARTCHAR 00D6
ENCODING 214
SWIDTH 720 0
DWIDTH 12 0
BBX 10 19 0 0
BITMAP
3180
7380
0000
FFC0
FFC0
FFC0
E1C0
E1C0
E1C0
E1C0
E1C0
E1C0
E1C0
E1C0
E1C0
E1C0
FFC0
FFC0
7F80
ENDCHAR
STARTCHAR 00D7
ENCODING 215
SWIDTH 600 0
DWIDTH 10 0
BBX 9 8 0 4
BITMAP
6300
FF80
FF80
3E00
3E00
FF80
F780
6300
ENDCHAR
STARTCHAR 00D8
ENCODING 216
SWIDTH 720 0
DWIDTH 12 0
BBX 10 16 0 0
BITMAP
FFC0
FFC0
FFC0
E1C0
E1C0
E1C0
E7C0
EFC0
F9C0
F1C0
E1C0
E1C0
E1C0
FFC0
FFC0
7F80
ENDCHAR
STARTCHAR 00D9
ENCODING 217
SWIDTH 720 0
DWIDTH 12 0
BBX 10 19 0 0
BITMAP
7800
1E00
0000
E1C0
E1C0
E1C0
E1C0
E1C0
E1C0
E1C0
E1C0
E1C0
E1C0
E1C0
E1C0
E1C0
FFC0
FFC0
7F80
ENDCHAR
STARTCHAR 00DA
ENCODING 218
SWIDTH 720 0
DWIDTH 12 0
BBX 10 19 0 0
BITMAP
0780
1E00
0000
E1C0
E1C0
E1C0
E1C0
E1C0
E1C0
E1C0
E1C0
E1C0
E1C0
E1C0
E1C0
E1C0
FFC0
FFC0
7F80
ENDCHAR
STARTCHAR 00DB
ENCODING 219
SWIDTH 720 0
DWIDTH 12 0
BBX 10 20 0 0
BITMAP
1E00
3F00
7380
0000
E1C0
E1C0
E1C0
E1C0
E1C0
E1C0
E1C0
E1C0
E1C0
E1C0
E1C0
E1C0
E1C0
FFC0
FFC0
7F80
ENDCHAR
STARTCHAR 00DC
ENCODING 220
SWIDTH 720 0
DWIDTH 12 0
BBX 10 19 0 0
BITMAP
3180
7380
0000
E1C0
E1C0
E1C0
E1C0
E1C0
E1C0
E1C0
E1C0
E1C0
E1C0
E1C0
E1C0
E1C0
FFC0
FFC0
7F80
ENDCHAR
STARTCHAR 00DD
ENCODING 221
SWIDTH 780 0
DWIDTH 13 0
BBX 11 19 0 0
BITMAP
07C0
1E00
0000
60C0
E0E0
E0E0
E0E0
FBE0
7FC0
7FC0
3F80
0E00
0E00
0E00
0E00
0E00
0E00
0E00
0E00
ENDCHAR
STARTCHAR 00DE
ENCODING 222
SWIDTH 720 0
DWIDTH 12 0
BBX 10 16 0 0
BITMAP
E000
FF80
FFC0
FFC0
E1C0
E1C0
E1C0
E1C0
E1C0
E1C0
E1C0
FFC0
FFC0
FF80
E000
E000
ENDCHAR
STARTCHAR 00DF
ENCODING 223
SWIDTH 720 0
DWIDTH 12 0
BBX 10 16 0 0
BITMAP
FF80
FF80
FF80
E380
E380
E380
FF00
FF00
FF80
E3C0
E1C0
E1C0
E1C0
EFC0
EFC0
EF80
ENDCHAR
STARTCHAR 00E0
ENCODING 224
SWIDTH 720 0
DWIDTH 12 0
BBX 10 16 0 0
BITMAP
7800
3E00
0000
7F80
FFC0
FFC0
01C0
01C0
FFC0
FFC0
FFC0
E1C0
E1C0
FFC0
FFC0
7FC0
ENDCHAR
STARTCHAR 00E1
ENCODING 225
SWIDTH 720 0
DWIDTH 12 0
BBX 10 16 0 0
BITMAP
0780
0F00
1000
7F80
FFC0
FFC0
01C0
01C0
FFC0
FFC0
FFC0
E1C0
E1C0
FFC0
FFC0
7FC0
ENDCHAR
STARTCHAR 00E2
ENCODING 226
SWIDTH 720 0
DWIDTH 12 0
BBX 10 16 0 0
BITMAP
1E00
7F80
0000
7F80
FFC0
FFC0
01C0
01C0
FFC0
FFC0
FFC0
E1C0
E1C0
FFC0
FFC0
7FC0
ENDCHAR
STARTCHAR 00E3
ENCODING 227
SWIDTH 720 0
DWIDTH 12 0
BBX 10 16 0 0
BITMAP
7F80
7F80
0000
7F80
FFC0
FFC0
01C0
01C0
FFC0
FFC0
FFC0
E1C0
E1C0
FFC0
FFC0
7FC0
ENDCHAR
STARTCHAR 00E4
ENCODING 228
SWIDTH 720 0
DWIDTH 12 0
BBX 10 16 0 0
BITMAP
3180
7380
0000
7F80
FFC0
FFC0
01C0
01C0
FFC0
FFC0
FFC0
E1C0
E1C0
FFC0
FFC0
7FC0
ENDCHAR
STARTCHAR 00E5
ENCODING 229
SWIDTH 720 0
DWIDTH 12 0
BBX 10 16 0 0
BITMAP
3F00
1E00
0000
7F80
FFC0
FFC0
01C0
01C0
FFC0
FFC0
FFC0
E1C0
E1C0
FFC0
FFC0
7FC0
ENDCHAR
STARTCHAR 00E6
ENCODING 230
SWIDTH 900 0
DWIDTH 15 0
BBX 13 13 0 0
BITMAP
7FF0
FFF8
FFF8
0738
0738
FFF8
FFF8
FFF8
E700
E700
FFF8
FFF8
7FF8
ENDCHAR
STARTCHAR 00E7
ENCODING 231
SWIDTH 720 0
DWIDTH 12 0
BBX 10 18 0 -5
BITMAP
7F80
FFC0
FFC0
E1C0
E1C0
E000
E000
E000
E1C0
E1C0
FFC0
FFC0
7F80
1800
1F00
1F80
1F80
1F00
ENDCHAR
STARTCHAR 00E8
ENCODING 232
SWIDTH 720 0
DWIDTH 12 0
BBX 10 16 0 0
BITMAP
7800
3C00
0200
7F80
FFC0
FFC0
E1C0
E1C0
FFC0
FFC0
FFC0
E000
E000
FFC0
FFC0
7FC0
ENDCHAR
STARTCHAR 00E9
ENCODING 233
SWIDTH 720 0
DWIDTH 12 0
BBX 10 16 0 0
BITMAP
0780
0F00
1000
7F80
FFC0
FFC0
E1C0
E1C0
FFC0
FFC0
FFC0
E000
E000
FFC0
FFC0
7FC0
ENDCHAR
STARTCHAR 00EA
ENCODING 234
SWIDTH 720 0
DWIDTH 12 0
BBX 10 16 0 0
BITMAP
3F00
7380
0000
7F80
FFC0
FFC0
E1C0
E1C0
FFC0
FFC0
FFC0
E000
E000
FFC0
FFC0
7FC0
ENDCHAR
STARTCHAR 00EB
ENCODING 235
SWIDTH 720 0
DWIDTH 12 0
BBX 10 16 0 0
BITMAP
3180
7380
0000
7F80
BFC0
FFC0
E1C0
E1C0
FFC0
FFC0
FFC0
E000
E000
FFC0
FFC0
7FC0
ENDCHAR
STARTCHAR 00EC
ENCODING 236
SWIDTH 540 0
DWIDTH 9 0
BBX 7 16 0 0
BITMAP
F0
70
08
7C
FE
FE
38
38
38
38
38
38
38
FE
FE
FE
ENDCHAR
STARTCHAR 00ED
ENCODING 237
SWIDTH 540 0
DWIDTH 9 0
BBX 7 16 0 0
BITMAP
1E
1C
20
7C
BE
FE
38
38
38
38
38
38
38
FE
FE
FE
ENDCHAR
STARTCHAR 00EE
ENCODING 238
SWIDTH 540 0
DWIDTH 9 0
BBX 7 16 0 0
BITMAP
38
7C
EE
7C
FE
FE
38
38
38
38
38
38
38
FE
FE
FE
ENDCHAR
STARTCHAR 00EF
ENCODING 239
SWIDTH 600 0
DWIDTH 10 0
BBX 8 16 0 0
BITMAP
63
E7
00
3E
5F
7F
1C
1C
1C
1C
1C
1C
1C
7F
7F
7F
ENDCHAR
STARTCHAR 00F0
ENCODING 240
SWIDTH 720 0
DWIDTH 12 0
BBX 10 19 0 0
BITMAP
1800
3C00
3E00
0F80
0780
03C0
7FC0
FFC0
FFC0
E1C0
E1C0
E1C0
E1C0
E1C0
E1C0
E1C0
FFC0
FFC0
7F80
ENDCHAR
STARTCHAR 00F1
ENCODING 241
SWIDTH 720 0
DWIDTH 12 0
BBX 10 16 0 0
BITMAP
7F80
7F80
0000
7F80
FFC0
FFC0
E1C0
E1C0
E1C0
E1C0
E1C0
E1C0
E1C0
E1C0
E1C0
E1C0
ENDCHAR
STARTCHAR 00F2
ENCODING 242
SWIDTH 720 0
DWIDTH 12 0
BBX 10 16 0 0
BITMAP
7800
3C00
0200
7F80
FFC0
FFC0
E1C0
E1C0
E1C0
E1C0
E1C0
E1C0
E1C0
FFC0
FFC0
7F80
ENDCHAR
STARTCHAR 00F3
ENCODING 243
SWIDTH 720 0
DWIDTH 12 0
BBX 10 16 0 0
BITMAP
0780
0F00
1000
7F80
FFC0
FFC0
E1C0
E1C0
E1C0
E1C0
E1C0
E1C0
E1C0
FFC0
FFC0
7F80
ENDCHAR
STARTCHAR 00F4
ENCODING 244
SWIDTH 720 0
DWIDTH 12 0
BBX 10 16 0 0
BITMAP
3F00
7380
0000
7F80
FFC0
FFC0
E1C0
E1C0
E1C0
E1C0
E1C0
E1C0
E1C0
FFC0
FFC0
7F80
ENDCHAR
STARTCHAR 00F5
ENCODING 245
SWIDTH 720 0
DWIDTH 12 0
BBX 10 16 0 0
BITMAP
7F80
7F80
0000
7F80
FFC0
FFC0
E1C0
E1C0
E1C0
E1C0
E1C0
E1C0
E1C0
FFC0
FFC0
7F80
ENDCHAR
STARTCHAR 00F6
ENCODING 246
SWIDTH 720 0
DWIDTH 12 0
BBX 10 16 0 0
BITMAP
3180
7380
0000
7F80
BFC0
FFC0
E1C0
E1C0
E1C0
E1C0
E1C0
E1C0
E1C0
FFC0
FFC0
7F80
ENDCHAR
STARTCHAR 00F7
ENCODING 247
SWIDTH 720 0
DWIDTH 12 0
BBX 11 13 0 2
BITMAP
0E00
0E00
0E00
0000
0000
7FE0
FFE0
FFE0
0000
0000
0E00
0E00
0E00
ENDCHAR
STARTCHAR 00F8
ENCODING 248
SWIDTH 720 0
DWIDTH 12 0
BBX 10 13 0 0
BITMAP
7F80
FFC0
FFC0
E1C0
E3C0
E7C0
EDC0
F9C0
F1C0
E1C0
FFC0
FFC0
7F80
ENDCHAR
STARTCHAR 00F9
ENCODING 249
SWIDTH 720 0
DWIDTH 12 0
BBX 10 16 0 0
BITMAP
7800
3C00
0200
6180
E1C0
E1C0
E1C0
E1C0
E1C0
E1C0
E1C0
E1C0
E1C0
FFC0
FFC0
7F80
ENDCHAR
STARTCHAR 00FA
ENCODING 250
SWIDTH 720 0
DWIDTH 12 0
BBX 10 16 0 0
BITMAP
0780
0F00
1000
6180
E1C0
E1C0
E1C0
E1C0
E1C0
E1C0
E1C0
E1C0
E1C0
FFC0
FFC0
7F80
ENDCHAR
STARTCHAR 00FB
ENCODING 251
SWIDTH 720 0
DWIDTH 12 0
BBX 10 16 0 0
BITMAP
3F00
7F80
0000
6180
E1C0
E1C0
E1C0
E1C0
E1C0
E1C0
E1C0
E1C0
E1C0
FFC0
FFC0
7F80
ENDCHAR
STARTCHAR 00FC
ENCODING 252
SWIDTH 720 0
DWIDTH 12 0
BBX 10 16 0 0
BITMAP
3180
7380
0000
6180
A1C0
E1C0
E1C0
E1C0
E1C0
E1C0
E1C0
E1C0
E1C0
FFC0
FFC0
7F80
ENDCHAR
STARTCHAR 00FD
ENCODING 253
SWIDTH 720 0
DWIDTH 12 0
BBX 10 21 0 -5
BITMAP
0780
0F00
1000
6180
E1C0
E1C0
E1C0
E1C0
E1C0
E1C0
E1C0
E1C0
E1C0
FFC0
FFC0
7FC0
01C0
01C0
7FC0
7FC0
3F80
ENDCHAR
STARTCHAR 00FE
ENCODING 254
SWIDTH 720 0
DWIDTH 12 0
BBX 10 19 0 -3
BITMAP
E000
E000
E000
FF80
FFC0
FFC0
E1C0
E1C0
E1C0
E1C0
E1C0
E1C0
E1C0
FFC0
FFC0
FF80
E000
E000
E000
ENDCHAR
STARTCHAR 00FF
ENCODING 255
SWIDTH 720 0
DWIDTH 12 0
BBX 10 21 0 -5
BITMAP
3180
7380
0000
6180
A1C0
E1C0
E1C0
E1C0
E1C0
E1C0
E1C0
E1C0
E1C0
FFC0
FFC0
7FC0
01C0
01C0
3FC0
3FC0
3F80
ENDCHAR
STARTCHAR 0131
ENCODING 305
SWIDTH 540 0
DWIDTH 9 0
BBX 7 13 0 0
BITMAP
7C
FE
FE
38
38
38
38
38
38
38
FE
FE
FE
ENDCHAR
STARTCHAR 0152
ENCODING 338
SWIDTH 900 0
DWIDTH 15 0
BBX 14 16 0 0
BITMAP
FFFC
FFFC
FFFC
E700
E700
E700
E7F0
E7F0
E7F0
E700
E700
E700
E700
FFFC
FFFC
7FF8
ENDCHAR
STARTCHAR 0153
ENCODING 339
SWIDTH 900 0
DWIDTH 15 0
BBX 13 13 0 0
BITMAP
7FF0
FFF8
FFF8
E738
E738
E7F8
E7F8
E7F8
E700
E700
FFF8
FFF8
7FF8
ENDCHAR
STARTCHAR 0160
ENCODING 352
SWIDTH 720 0
DWIDTH 12 0
BBX 10 20 0 0
BITMAP
3C80
7F80
6780
0000
7F80
FFC0
FFC0
E1C0
E1C0
E000
FF80
FFC0
FFC0
01C0
01C0
E1C0
E1C0
FFC0
FFC0
7F80
ENDCHAR
STARTCHAR 0161
ENCODING 353
SWIDTH 720 0
DWIDTH 12 0
BBX 10 16 0 0
BITMAP
7F80
6780
0000
7F80
FFC0
FFC0
E000
E000
FFC0
FFC0
FFC0
01C0
01C0
FFC0
FFC0
7F80
ENDCHAR
STARTCHAR 0178
ENCODING 376
SWIDTH 720 0
DWIDTH 12 0
BBX 10 19 0 0
BITMAP
3180
7380
0000
6180
E1C0
E1C0
E1C0
F3C0
7F80
3F00
3F00
0E00
0E00
0E00
0E00
0E00
0E00
0E00
0E00
ENDCHAR
STARTCHAR 017D
ENCODING 381
SWIDTH 720 0
DWIDTH 12 0
BBX 10 20 0 0
BITMAP
7380
3F00
1E00
0000
7F80
FFC0
FFC0
01C0
01C0
0780
0F80
1F00
3E00
7800
F000
E000
E000
FFC0
FFC0
7F80
ENDCHAR
STARTCHAR 017E
ENCODING 382
SWIDTH 720 0
DWIDTH 12 0
BBX 10 16 0 0
BITMAP
3300
3F00
0000
7F80
BFC0
FFC0
03C0
0780
0F00
3F00
3C00
7800
F000
FFC0
FFC0
FFC0
ENDCHAR
STARTCHAR 0192
ENCODING 402
SWIDTH 660 0
DWIDTH 11 0
BBX 10 19 0 -3
BITMAP
0F80
1FC0
1FC0
1C00
1C00
7F80
7F80
7F80
1C00
1C00
1C00
1C00
1C00
1C00
1C00
1C00
FC00
FC00
7800
ENDCHAR
STARTCHAR 02C6
ENCODING 710
SWIDTH 780 0
DWIDTH 13 0
BBX 11 6 0 10
BITMAP
0E00
1F00
3F00
3F80
F1E0
61C0
ENDCHAR
STARTCHAR 02C7
ENCODING 711
SWIDTH 600 0
DWIDTH 10 0
BBX 6 3 2 17
BITMAP
78
FC
CC
ENDCHAR
STARTCHAR 02D9
ENCODING 729
SWIDTH 300 0
DWIDTH 5 0
BBX 3 3 0 13
BITMAP
E0
E0
E0
ENDCHAR
STARTCHAR 02DA
ENCODING 730
SWIDTH 420 0
DWIDTH 7 0
BBX 5 5 0 11
BITMAP
70
F8
D8
F8
70
ENDCHAR
STARTCHAR 02DC
ENCODING 732
SWIDTH 900 0
DWIDTH 15 0
BBX 14 6 0 10
BITMAP
1E3C
1F7C
3FF8
F3E0
E1C0
6080
ENDCHAR
STARTCHAR 0401
ENCODING 1025
SWIDTH 720 0
DWIDTH 12 0
BBX 10 19 0 0
BITMAP
38C0
39C0
0000
FFC0
FFC0
FFC0
E000
E000
E000
FF80
FF80
FF80
E000
E000
E000
E000
FFC0
FFC0
7FC0
ENDCHAR
STARTCHAR 0402
ENCODING 1026
SWIDTH 840 0
DWIDTH 14 0
BBX 12 16 0 0
BITMAP
7E00
FF00
FF00
3800
3800
3800
3FE0
3FF0
3FF0
3870
3870
3870
3870
39F0
39F0
39E0
ENDCHAR
STARTCHAR 0403
ENCODING 1027
SWIDTH 720 0
DWIDTH 12 0
BBX 10 20 0 0
BITMAP
0700
0F00
1E00
0000
FFC0
FFC0
FFC0
E000
E000
E000
E000
E000
E000
E000
E000
E000
E000
E000
E000
E000
ENDCHAR
STARTCHAR 0404
ENCODING 1028
SWIDTH 720 0
DWIDTH 12 0
BBX 10 16 0 0
BITMAP
FFC0
FFC0
FFC0
E1C0
E1C0
E000
FE00
FE00
FE00
E000
E000
E1C0
E1C0
FFC0
FFC0
7F80
ENDCHAR
STARTCHAR 0405
ENCODING 1029
SWIDTH 720 0
DWIDTH 12 0
BBX 10 16 0 0
BITMAP
7F80
FFC0
FFC0
E1C0
E1C0
E000
FF80
FFC0
FFC0
01C0
01C0
E1C0
E1C0
FFC0
FFC0
7F80
ENDCHAR
STARTCHAR 0406
ENCODING 1030
SWIDTH 720 0
DWIDTH 12 0
BBX 10 16 0 0
BITMAP
7F80
FFC0
FFC0
0E00
0E00
0E00
0E00
0E00
0E00
0E00
0E00
0E00
0E00
FFC0
FFC0
FFC0
ENDCHAR
STARTCHAR 0407
ENCODING 1031
SWIDTH 720 0
DWIDTH 12 0
BBX 10 19 0 0
BITMAP
3180
7380
0000
7F80
FFC0
FFC0
0E00
0E00
0E00
0E00
0E00
0E00
0E00
0E00
0E00
0E00
FFC0
FFC0
FFC0
ENDCHAR
STARTCHAR 0408
ENCODING 1032
SWIDTH 720 0
DWIDTH 12 0
BBX 10 16 0 0
BITMAP
7FC0
FFC0
FFC0
E1C0
E1C0
01C0
01C0
01C0
01C0
01C0
E1C0
E1C0
E1C0
FFC0
FFC0
7F80
ENDCHAR
STARTCHAR 0409
ENCODING 1033
SWIDTH 1020 0
DWIDTH 17 0
BBX 15 16 0 0
BITMAP
1F80
3FC0
3FC0
39C0
39C0
39C0
39FC
39FE
39FE
39CE
39CE
39CE
39CE
F9FE
F9FE
F1FC
ENDCHAR
STARTCHAR 040A
ENCODING 1034
SWIDTH 900 0
DWIDTH 15 0
BBX 13 16 0 0
BITMAP
E700
E700
E700
E700
E700
E700
FFF0
FFF8
FFF8
E738
E738
E738
E738
E7F8
E7F8
E7F0
ENDCHAR
STARTCHAR 040B
ENCODING 1035
SWIDTH 840 0
DWIDTH 14 0
BBX 12 16 0 0
BITMAP
7E00
FF00
FF00
3800
3800
3800
3FE0
3FF0
3FF0
3870
3870
3870
3870
3870
3870
3870
ENDCHAR
STARTCHAR 040C
ENCODING 1036
SWIDTH 720 0
DWIDTH 12 0
BBX 10 19 0 0
BITMAP
0780
1E00
0000
E1C0
E1C0
E1C0
E1C0
E3C0
E7C0
FF80
FF00
FF80
E780
E3C0
E1C0
E1C0
E1C0
E1C0
E1C0
ENDCHAR
STARTCHAR 040E
ENCODING 1038
SWIDTH 780 0
DWIDTH 13 0
BBX 11 20 0 0
BITMAP
7BC0
3F80
1E00
0000
60C0
E0E0
E0E0
E0E0
FBE0
7FC0
7FC0
3F80
0E00
0E00
0E00
0E00
0E00
0E00
0E00
0E00
ENDCHAR
STARTCHAR 040F
ENCODING 1039
SWIDTH 780 0
DWIDTH 13 0
BBX 11 18 0 -2
BITMAP
E0E0
E0E0
E0E0
E0E0
E0E0
E0E0
E0E0
E0E0
E0E0
E0E0
E0E0
E0E0
E0E0
FFE0
FFE0
7FC0
0E00
0E00
ENDCHAR
STARTCHAR 0410
ENCODING 1040
SWIDTH 720 0
DWIDTH 12 0
BBX 10 16 0 0
BITMAP
7F80
FFC0
FFC0
E1C0
E1C0
E1C0
FFC0
FFC0
FFC0
E1C0
E1C0
E1C0
E1C0
E1C0
E1C0
E1C0
ENDCHAR
STARTCHAR 0411
ENCODING 1041
SWIDTH 720 0
DWIDTH 12 0
BBX 10 16 0 0
BITMAP
7FC0
FFC0
FFC0
E000
E000
E000
FF80
FFC0
FFC0
E1C0
E1C0
E1C0
E1C0
FFC0
FFC0
FF80
ENDCHAR
STARTCHAR 0412
ENCODING 1042
SWIDTH 720 0
DWIDTH 12 0
BBX 10 16 0 0
BITMAP
FFC0
FFC0
FFC0
E1C0
E1C0
E1C0
FF80
FF80
FF80
E1C0
E1C0
E1C0
E1C0
FFC0
FFC0
FF80
ENDCHAR
STARTCHAR 0413
ENCODING 1043
SWIDTH 720 0
DWIDTH 12 0
BBX 10 16 0 0
BITMAP
FFC0
FFC0
FFC0
E000
E000
E000
E000
E000
E000
E000
E000
E000
E000
E000
E000
E000
ENDCHAR
STARTCHAR 0414
ENCODING 1044
SWIDTH 840 0
DWIDTH 14 0
BBX 12 18 0 -2
BITMAP
3FC0
3FC0
3FC0
39C0
39C0
39C0
39C0
39C0
39C0
39C0
39C0
39C0
39C0
7FE0
FFF0
FFF0
E070
E070
ENDCHAR
STARTCHAR 0415
ENCODING 1045
SWIDTH 720 0
DWIDTH 12 0
BBX 10 16 0 0
BITMAP
FFC0
FFC0
FFC0
E000
E000
E000
FF80
FF80
FF80
E000
E000
E000
E000
FFC0
FFC0
7F80
ENDCHAR
STARTCHAR 0416
ENCODING 1046
SWIDTH 840 0
DWIDTH 14 0
BBX 12 16 0 0
BITMAP
E670
E670
E670
E670
E670
E670
7FE0
7FE0
7FE0
E670
E670
E670
E670
E670
E670
E670
ENDCHAR
STARTCHAR 0417
ENCODING 1047
SWIDTH 720 0
DWIDTH 12 0
BBX 10 16 0 0
BITMAP
FFC0
FFC0
FFC0
E1C0
E1C0
01C0
1F80
1F80
1F80
01C0
01C0
E1C0
E1C0
FFC0
FFC0
7F80
ENDCHAR
STARTCHAR 0418
ENCODING 1048
SWIDTH 720 0
DWIDTH 12 0
BBX 10 16 0 0
BITMAP
6180
E1C0
E1C0
E1C0
E1C0
E7C0
EFC0
FFC0
FFC0
F9C0
F1C0
E1C0
E1C0
E1C0
E1C0
E1C0
ENDCHAR
STARTCHAR 0419
ENCODING 1049
SWIDTH 720 0
DWIDTH 12 0
BBX 10 20 0 0
BITMAP
7380
3F00
1E00
0000
6180
E1C0
E1C0
E1C0
E1C0
E7C0
EFC0
FFC0
FFC0
F9C0
F1C0
E1C0
E1C0
E1C0
E1C0
E1C0
ENDCHAR
STARTCHAR 041A
ENCODING 1050
SWIDTH 720 0
DWIDTH 12 0
BBX 10 16 0 0
BITMAP
6180
E1C0
E1C0
E1C0
E3C0
E780
FF80
FF00
FF80
E780
E3C0
E1C0
E1C0
E1C0
E1C0
E1C0
ENDCHAR
STARTCHAR 041B
ENCODING 1051
SWIDTH 720 0
DWIDTH 12 0
BBX 10 16 0 0
BITMAP
3F80
7FC0
FFC0
F1C0
E1C0
E1C0
E1C0
E1C0
E1C0
E1C0
E1C0
E1C0
E1C0
E1C0
E1C0
C1C0
ENDCHAR
STARTCHAR 041C
ENCODING 1052
SWIDTH 840 0
DWIDTH 14 0
BBX 12 16 0 0
BITMAP
6060
E070
E070
F0F0
FFF0
FFF0
FFF0
EF70
E670
E670
E670
E070
E070
E070
E070
E070
ENDCHAR
STARTCHAR 041D
ENCODING 1053
SWIDTH 720 0
DWIDTH 12 0
BBX 10 16 0 0
BITMAP
6180
E1C0
E1C0
E1C0
E1C0
E1C0
FFC0
FFC0
FFC0
E1C0
E1C0
E1C0
E1C0
E1C0
E1C0
E1C0
ENDCHAR
STARTCHAR 041E
ENCODING 1054
SWIDTH 720 0
DWIDTH 12 0
BBX 10 16 0 0
BITMAP
FFC0
FFC0
FFC0
E1C0
E1C0
E1C0
E1C0
E1C0
E1C0
E1C0
E1C0
E1C0
E1C0
FFC0
FFC0
7F80
ENDCHAR
STARTCHAR 041F
ENCODING 1055
SWIDTH 720 0
DWIDTH 12 0
BBX 10 16 0 0
BITMAP
7F80
FFC0
FFC0
E1C0
E1C0
E1C0
E1C0
E1C0
E1C0
E1C0
E1C0
E1C0
E1C0
E1C0
E1C0
E1C0
ENDCHAR
STARTCHAR 0420
ENCODING 1056
SWIDTH 720 0
DWIDTH 12 0
BBX 10 16 0 0
BITMAP
7F80
FFC0
FFC0
E1C0
E1C0
E1C0
FFC0
FFC0
FFC0
E000
E000
E000
E000
E000
E000
E000
ENDCHAR
STARTCHAR 0421
ENCODING 1057
SWIDTH 720 0
DWIDTH 12 0
BBX 10 16 0 0
BITMAP
FFC0
FFC0
FFC0
E1C0
E1C0
E000
E000
E000
E000
E000
E000
E1C0
E1C0
FFC0
FFC0
7F80
ENDCHAR
STARTCHAR 0422
ENCODING 1058
SWIDTH 720 0
DWIDTH 12 0
BBX 11 16 0 0
BITMAP
7FC0
FFE0
FFE0
0E00
0E00
0E00
0E00
0E00
0E00
0E00
0E00
0E00
0E00
0E00
0E00
0E00
ENDCHAR
STARTCHAR 0423
ENCODING 1059
SWIDTH 720 0
DWIDTH 12 0
BBX 10 16 0 0
BITMAP
61C0
E1C0
E1C0
E1C0
E1C0
E1C0
FFC0
FFC0
FFC0
01C0
01C0
E1C0
E1C0
FFC0
FFC0
7F80
ENDCHAR
STARTCHAR 0424
ENCODING 1060
SWIDTH 840 0
DWIDTH 14 0
BBX 12 16 0 0
BITMAP
7FE0
FFF0
FFF0
E670
E670
E670
E670
E670
E670
E670
FFF0
FFF0
7FE0
0600
0600
0600
ENDCHAR
STARTCHAR 0425
ENCODING 1061
SWIDTH 720 0
DWIDTH 12 0
BBX 10 16 0 0
BITMAP
6180
E1C0
E1C0
E1C0
F3C0
7F80
3F80
1F00
3F80
7F80
F3C0
E1C0
E1C0
E1C0
E1C0
E1C0
ENDCHAR
STARTCHAR 0426
ENCODING 1062
SWIDTH 840 0
DWIDTH 14 0
BBX 12 18 0 -2
BITMAP
E1C0
E1C0
E1C0
E1C0
E1C0
E1C0
E1C0
E1C0
E1C0
E1C0
E1C0
E1C0
E1C0
FFE0
FFF0
7FF0
0070
0070
ENDCHAR
STARTCHAR 0427
ENCODING 1063
SWIDTH 720 0
DWIDTH 12 0
BBX 10 16 0 0
BITMAP
61C0
E1C0
E1C0
E1C0
E1C0
E1C0
FFC0
FFC0
FFC0
01C0
01C0
01C0
01C0
01C0
01C0
01C0
ENDCHAR
STARTCHAR 0428
ENCODING 1064
SWIDTH 840 0
DWIDTH 14 0
BBX 12 16 0 0
BITMAP
6060
E070
E070
E670
E670
E670
E670
E670
E670
E670
E670
E670
E670
FFF0
FFF0
FFF0
ENDCHAR
STARTCHAR 0429
ENCODING 1065
SWIDTH 900 0
DWIDTH 15 0
BBX 13 18 0 -2
BITMAP
6060
E070
E070
E670
E670
E670
E670
E670
E670
E670
E670
E670
E670
FFF8
FFF8
FFF8
0038
0038
ENDCHAR
STARTCHAR 042A
ENCODING 1066
SWIDTH 840 0
DWIDTH 14 0
BBX 12 16 0 0
BITMAP
7800
F800
F800
3800
3800
3800
3FE0
3FF0
3FF0
3870
3870
3870
3870
3FF0
3FF0
1FE0
ENDCHAR
STARTCHAR 042B
ENCODING 1067
SWIDTH 1020 0
DWIDTH 17 0
BBX 15 16 0 0
BITMAP
E00E
E00E
E00E
E00E
E00E
E00E
FF8E
FFCE
FFCE
E1CE
E1CE
E1CE
E1CE
FFCE
FFCE
7F8E
ENDCHAR
STARTCHAR 042C
ENCODING 1068
SWIDTH 720 0
DWIDTH 12 0
BBX 10 16 0 0
BITMAP
E000
E000
E000
E000
E000
E000
FF80
FFC0
FFC0
E1C0
E1C0
E1C0
E1C0
FFC0
FFC0
7F80
ENDCHAR
STARTCHAR 042D
ENCODING 1069
SWIDTH 720 0
DWIDTH 12 0
BBX 10 16 0 0
BITMAP
FFC0
FFC0
FFC0
E1C0
E1C0
01C0
1FC0
1FC0
1FC0
01C0
01C0
E1C0
E1C0
FFC0
FFC0
7F80
ENDCHAR
STARTCHAR 042E
ENCODING 1070
SWIDTH 900 0
DWIDTH 15 0
BBX 13 16 0 0
BITMAP
E7F8
E7F8
E7F8
E738
E738
E738
FF38
FF38
FF38
E738
E738
E738
E738
E7F8
E7F8
E7F8
ENDCHAR
STARTCHAR 042F
ENCODING 1071
SWIDTH 720 0
DWIDTH 12 0
BBX 10 16 0 0
BITMAP
7F80
FFC0
FFC0
E1C0
E1C0
E1C0
FFC0
FFC0
7FC0
79C0
F1C0
E1C0
E1C0
E1C0
E1C0
E1C0
ENDCHAR
STARTCHAR 0430
ENCODING 1072
SWIDTH 720 0
DWIDTH 12 0
BBX 10 13 0 0
BITMAP
7F80
FFC0
FFC0
01C0
01C0
FFC0
FFC0
FFC0
E1C0
E1C0
FFC0
FFC0
7FC0
ENDCHAR
STARTCHAR 0431
ENCODING 1073
SWIDTH 720 0
DWIDTH 12 0
BBX 10 13 0 0
BITMAP
7FC0
FFC0
FFC0
E000
E000
FFC0
FFC0
FFC0
E1C0
E1C0
FFC0
FFC0
FF80
ENDCHAR
STARTCHAR 0432
ENCODING 1074
SWIDTH 720 0
DWIDTH 12 0
BBX 10 13 0 0
BITMAP
7F80
FFC0
FFC0
E1C0
E1C0
FF80
FF80
FF80
E1C0
E1C0
FFC0
FFC0
FF80
ENDCHAR
STARTCHAR 0433
ENCODING 1075
SWIDTH 720 0
DWIDTH 12 0
BBX 10 13 0 0
BITMAP
7F80
FFC0
FFC0
E000
E000
E000
E000
E000
E000
E000
E000
E000
E000
ENDCHAR
STARTCHAR 0434
ENCODING 1076
SWIDTH 840 0
DWIDTH 14 0
BBX 12 15 0 -2
BITMAP
3FC0
3FC0
3FC0
39C0
39C0
39C0
39C0
39C0
39C0
39C0
7FE0
FFF0
FFF0
E070
E070
ENDCHAR
STARTCHAR 0435
ENCODING 1077
SWIDTH 720 0
DWIDTH 12 0
BBX 10 13 0 0
BITMAP
7F80
FFC0
FFC0
E1C0
E1C0
FFC0
FFC0
FFC0
E000
E000
FFC0
FFC0
7FC0
ENDCHAR
STARTCHAR 0436
ENCODING 1078
SWIDTH 840 0
DWIDTH 14 0
BBX 12 13 0 0
BITMAP
6660
A670
E670
E670
E670
7FE0
7FE0
7FE0
E670
E670
E670
E670
E670
ENDCHAR
STARTCHAR 0437
ENCODING 1079
SWIDTH 720 0
DWIDTH 12 0
BBX 10 13 0 0
BITMAP
7FC0
BFC0
FFC0
01C0
01C0
1FC0
1FC0
1FC0
01C0
01C0
FFC0
FFC0
7FC0
ENDCHAR
STARTCHAR 0438
ENCODING 1080
SWIDTH 720 0
DWIDTH 12 0
BBX 10 13 0 0
BITMAP
6180
E1C0
E1C0
E3C0
E7C0
EFC0
FFC0
FDC0
F9C0
F1C0
E1C0
E1C0
E1C0
ENDCHAR
STARTCHAR 0439
ENCODING 1081
SWIDTH 720 0
DWIDTH 12 0
BBX 10 16 0 0
BITMAP
7F80
3F00
0000
6180
E1C0
E1C0
E3C0
E7C0
EFC0
FFC0
FDC0
F9C0
F1C0
E1C0
E1C0
E1C0
ENDCHAR
STARTCHAR 043A
ENCODING 1082
SWIDTH 720 0
DWIDTH 12 0
BBX 10 13 0 0
BITMAP
61C0
E1C0
E1C0
E3C0
E780
FF80
FF00
FF80
E780
E3C0
E1C0
E1C0
E1C0
ENDCHAR
STARTCHAR 043B
ENCODING 1083
SWIDTH 720 0
DWIDTH 12 0
BBX 10 13 0 0
BITMAP
3FC0
7FC0
FFC0
F1C0
E1C0
E1C0
E1C0
E1C0
E1C0
E1C0
E1C0
E1C0
E1C0
ENDCHAR
STARTCHAR 043C
ENCODING 1084
SWIDTH 840 0
DWIDTH 14 0
BBX 12 13 0 0
BITMAP
6060
E070
F0F0
FFF0
FFF0
EF70
E670
E670
E070
E070
E070
E070
E070
ENDCHAR
STARTCHAR 043D
ENCODING 1085
SWIDTH 720 0
DWIDTH 12 0
BBX 10 13 0 0
BITMAP
6180
E1C0
E1C0
E1C0
E1C0
FFC0
FFC0
FFC0
E1C0
E1C0
E1C0
E1C0
E1C0
ENDCHAR
STARTCHAR 043E
ENCODING 1086
SWIDTH 720 0
DWIDTH 12 0
BBX 10 13 0 0
BITMAP
7F80
FFC0
FFC0
E1C0
E1C0
E1C0
E1C0
E1C0
E1C0
E1C0
FFC0
FFC0
7F80
ENDCHAR
STARTCHAR 043F
ENCODING 1087
SWIDTH 720 0
DWIDTH 12 0
BBX 10 13 0 0
BITMAP
7F80
FFC0
FFC0
E1C0
E1C0
E1C0
E1C0
E1C0
E1C0
E1C0
E1C0
E1C0
E1C0
ENDCHAR
STARTCHAR 0440
ENCODING 1088
SWIDTH 720 0
DWIDTH 12 0
BBX 10 18 0 -5
BITMAP
7F80
FFC0
FFC0
E1C0
E1C0
E1C0
E1C0
E1C0
E1C0
E1C0
FFC0
FFC0
FF80
E000
E000
E000
E000
E000
ENDCHAR
STARTCHAR 0441
ENCODING 1089
SWIDTH 720 0
DWIDTH 12 0
BBX 10 13 0 0
BITMAP
7F80
FFC0
FFC0
E1C0
E1C0
E000
E000
E000
E1C0
E1C0
FFC0
FFC0
7F80
ENDCHAR
STARTCHAR 0442
ENCODING 1090
SWIDTH 720 0
DWIDTH 12 0
BBX 11 13 0 0
BITMAP
7FC0
FFE0
FFE0
0E00
0E00
0E00
0E00
0E00
0E00
0E00
0E00
0E00
0E00
ENDCHAR
STARTCHAR 0443
ENCODING 1091
SWIDTH 720 0
DWIDTH 12 0
BBX 10 18 0 -5
BITMAP
6180
E1C0
E1C0
E1C0
E1C0
E1C0
E1C0
E1C0
E1C0
E1C0
FFC0
FFC0
7FC0
01C0
01C0
7FC0
7FC0
3F80
ENDCHAR
STARTCHAR 0444
ENCODING 1092
SWIDTH 840 0
DWIDTH 14 0
BBX 12 16 0 -1
BITMAP
0600
0600
7FE0
FFF0
FFF0
E670
E670
E670
E670
E670
E670
E670
FFF0
FFF0
7FE0
0600
ENDCHAR
STARTCHAR 0445
ENCODING 1093
SWIDTH 780 0
DWIDTH 13 0
BBX 11 13 0 0
BITMAP
60C0
E0E0
FBE0
7FC0
7FC0
3F80
0E00
3F80
7FC0
7FC0
E0E0
E0E0
E0E0
ENDCHAR
STARTCHAR 0446
ENCODING 1094
SWIDTH 840 0
DWIDTH 14 0
BBX 12 15 0 -2
BITMAP
61C0
E1C0
E1C0
E1C0
E1C0
E1C0
E1C0
E1C0
E1C0
E1C0
FFE0
FFF0
7FF0
0070
0070
ENDCHAR
STARTCHAR 0447
ENCODING 1095
SWIDTH 720 0
DWIDTH 12 0
BBX 10 13 0 0
BITMAP
6180
E1C0
E1C0
E1C0
E1C0
FFC0
FFC0
FFC0
01C0
01C0
01C0
01C0
01C0
ENDCHAR
STARTCHAR 0448
ENCODING 1096
SWIDTH 840 0
DWIDTH 14 0
BBX 12 13 0 0
BITMAP
6060
E070
E670
E670
E670
E670
E670
E670
E670
E670
FFF0
FFF0
7FE0
ENDCHAR
STARTCHAR 0449
ENCODING 1097
SWIDTH 900 0
DWIDTH 15 0
BBX 13 15 0 -2
BITMAP
6060
E070
E670
E670
E670
E670
E670
E670
E670
E670
FFF8
FFF8
7FF8
0038
0038
ENDCHAR
STARTCHAR 044A
ENCODING 1098
SWIDTH 840 0
DWIDTH 14 0
BBX 12 13 0 0
BITMAP
7000
B800
F800
3800
3800
3FF0
3FF0
3FF0
3870
3870
3FF0
3FF0
1FE0
ENDCHAR
STARTCHAR 044B
ENCODING 1099
SWIDTH 1020 0
DWIDTH 17 0
BBX 15 13 0 0
BITMAP
6006
E00E
E00E
E00E
E00E
FFCE
FFCE
FFCE
E1CE
E1CE
FFCE
FFCE
7F8E
ENDCHAR
STARTCHAR 044C
ENCODING 1100
SWIDTH 720 0
DWIDTH 12 0
BBX 10 13 0 0
BITMAP
6000
E000
E000
E000
E000
FFC0
FFC0
FFC0
E1C0
E1C0
FFC0
FFC0
7F80
ENDCHAR
STARTCHAR 044D
ENCODING 1101
SWIDTH 720 0
DWIDTH 12 0
BBX 10 13 0 0
BITMAP
7F80
BFC0
FFC0
01C0
01C0
0FC0
0FC0
0FC0
01C0
01C0
FFC0
FFC0
7F80
ENDCHAR
STARTCHAR 044E
ENCODING 1102
SWIDTH 900 0
DWIDTH 15 0
BBX 13 13 0 0
BITMAP
63F0
E7F8
E7F8
E738
E738
FF38
FF38
FF38
E738
E738
E7F8
E7F8
E7F8
ENDCHAR
STARTCHAR 044F
ENCODING 1103
SWIDTH 720 0
DWIDTH 12 0
BBX 10 13 0 0
BITMAP
7FC0
FFC0
FFC0
E1C0
E1C0
FFC0
FFC0
FFC0
3FC0
7DC0
79C0
E1C0
C1C0
ENDCHAR
STARTCHAR 0451
ENCODING 1105
SWIDTH 720 0
DWIDTH 12 0
BBX 10 16 0 0
BITMAP
3180
7380
0000
7F80
BFC0
FFC0
E1C0
E1C0
FFC0
FFC0
FFC0
E000
E000
FFC0
FFC0
7FC0
ENDCHAR
STARTCHAR 0452
ENCODING 1106
SWIDTH 840 0
DWIDTH 14 0
BBX 12 19 0 -3
BITMAP
3800
FE00
FF00
FF00
3800
3800
3FE0
3FF0
3FF0
3870
3870
3870
3870
3870
3870
3870
01F0
01F0
01E0
ENDCHAR
STARTCHAR 0453
ENCODING 1107
SWIDTH 720 0
DWIDTH 12 0
BBX 10 16 0 0
BITMAP
0700
1E00
0000
7F80
FFC0
FFC0
E000
E000
E000
E000
E000
E000
E000
E000
E000
E000
ENDCHAR
STARTCHAR 0454
ENCODING 1108
SWIDTH 720 0
DWIDTH 12 0
BBX 10 13 0 0
BITMAP
7F80
FFC0
FFC0
E000
E000
FE00
FE00
FE00
E000
E000
FFC0
FFC0
7F80
ENDCHAR
STARTCHAR 0455
ENCODING 1109
SWIDTH 720 0
DWIDTH 12 0
BBX 10 13 0 0
BITMAP
7F80
FFC0
FFC0
E000
E000
FFC0
FFC0
FFC0
01C0
01C0
FFC0
FFC0
7F80
ENDCHAR
STARTCHAR 0456
ENCODING 1110
SWIDTH 540 0
DWIDTH 9 0
BBX 7 16 0 0
BITMAP
18
38
00
7C
FE
FE
38
38
38
38
38
38
38
FE
FE
FE
ENDCHAR
STARTCHAR 0457
ENCODING 1111
SWIDTH 600 0
DWIDTH 10 0
BBX 8 16 0 0
BITMAP
63
E7
00
3E
5F
7F
1C
1C
1C
1C
1C
1C
1C
7F
7F
7F
ENDCHAR
STARTCHAR 0458
ENCODING 1112
SWIDTH 540 0
DWIDTH 9 0
BBX 7 21 0 -5
BITMAP
06
0E
00
06
0E
0E
0E
0E
0E
0E
0E
0E
0E
0E
0E
0E
0E
0E
FE
FE
7C
ENDCHAR
STARTCHAR 0459
ENCODING 1113
SWIDTH 1020 0
DWIDTH 17 0
BBX 15 13 0 0
BITMAP
1F80
3FC0
3FC0
39C0
39C0
39FE
39FE
39FE
39CE
39CE
F9FE
F9FE
F1FC
ENDCHAR
STARTCHAR 045A
ENCODING 1114
SWIDTH 900 0
DWIDTH 15 0
BBX 13 13 0 0
BITMAP
6600
E700
E700
E700
E700
FFF8
FFF8
FFF8
E738
E738
E7F8
E7F8
E7F0
ENDCHAR
STARTCHAR 045B
ENCODING 1115
SWIDTH 840 0
DWIDTH 14 0
BBX 12 16 0 0
BITMAP
3800
FE00
FF00
FF00
3800
3800
3FE0
3FF0
3FF0
3870
3870
3870
3870
3870
3870
3870
ENDCHAR
STARTCHAR 045C
ENCODING 1116
SWIDTH 720 0
DWIDTH 12 0
BBX 10 16 0 0
BITMAP
0780
0F00
1000
61C0
E1C0
E1C0
E3C0
E780
FF80
FF00
FF80
E780
E3C0
E1C0
E1C0
E1C0
ENDCHAR
STARTCHAR 045E
ENCODING 1118
SWIDTH 720 0
DWIDTH 12 0
BBX 10 21 0 -5
BITMAP
7380
3F00
1E00
6180
E1C0
E1C0
E1C0
E1C0
E1C0
E1C0
E1C0
E1C0
E1C0
FFC0
FFC0
7FC0
01C0
01C0
7FC0
7FC0
3F80
ENDCHAR
STARTCHAR 045F
ENCODING 1119
SWIDTH 780 0
DWIDTH 13 0
BBX 11 15 0 -2
BITMAP
60C0
E0E0
E0E0
E0E0
E0E0
E0E0
E0E0
E0E0
E0E0
E0E0
FFE0
FFE0
7FC0
0E00
0E00
ENDCHAR
STARTCHAR 0490
ENCODING 1168
SWIDTH 720 0
DWIDTH 12 0
BBX 10 18 0 0
BITMAP
01C0
01C0
FFC0
FFC0
FF80
E000
E000
E000
E000
E000
E000
E000
E000
E000
E000
E000
E000
E000
ENDCHAR
STARTCHAR 0491
ENCODING 1169
SWIDTH 720 0
DWIDTH 12 0
BBX 10 15 0 0
BITMAP
01C0
01C0
7FC0
FFC0
FFC0
E000
E000
E000
E000
E000
E000
E000
E000
E000
E000
ENDCHAR
STARTCHAR 2013
ENCODING 8211
SWIDTH 720 0
DWIDTH 12 0
BBX 10 3 0 7
BITMAP
7F80
FFC0
FFC0
ENDCHAR
STARTCHAR 2014
ENCODING 8212
SWIDTH 780 0
DWIDTH 13 0
BBX 12 3 0 7
BITMAP
7FE0
FFF0
FFF0
ENDCHAR
STARTCHAR 2018
ENCODING 8216
SWIDTH 300 0
DWIDTH 5 0
BBX 4 6 0 13
BITMAP
C0
C0
C0
F0
F0
70
ENDCHAR
STARTCHAR 2019
ENCODING 8217
SWIDTH 360 0
DWIDTH 6 0
BBX 4 6 0 10
BITMAP
E0
F0
F0
30
30
30
ENDCHAR
STARTCHAR 201A
ENCODING 8218
SWIDTH 360 0
DWIDTH 6 0
BBX 4 6 0 -3
BITMAP
E0
F0
F0
30
30
30
ENDCHAR
STARTCHAR 201C
ENCODING 8220
SWIDTH 600 0
DWIDTH 10 0
BBX 9 6 0 13
BITMAP
C600
C600
C600
E780
E780
6380
ENDCHAR
STARTCHAR 201D
ENCODING 8221
SWIDTH 660 0
DWIDTH 11 0
BBX 10 6 0 10
BITMAP
E380
F3C0
F3C0
30C0
30C0
30C0
ENDCHAR
STARTCHAR 201E
ENCODING 8222
SWIDTH 660 0
DWIDTH 11 0
BBX 10 6 0 -3
BITMAP
E380
F3C0
F3C0
30C0
30C0
30C0
ENDCHAR
STARTCHAR 2020
ENCODING 8224
SWIDTH 720 0
DWIDTH 12 0
BBX 10 16 0 0
BITMAP
0E00
0E00
0E00
7F80
FFC0
FFC0
0E00
0E00
0E00
0E00
0E00
0E00
0E00
0E00
0E00
0E00
ENDCHAR
STARTCHAR 2021
ENCODING 8225
SWIDTH 720 0
DWIDTH 12 0
BBX 10 16 0 0
BITMAP
0E00
0E00
0E00
7F80
FFC0
FFC0
0E00
0E00
0E00
0E00
7F80
FFC0
FFC0
0E00
0E00
0E00
ENDCHAR
STARTCHAR 2022
ENCODING 8226
SWIDTH 420 0
DWIDTH 7 0
BBX 5 5 0 6
BITMAP
70
F8
F8
F8
70
ENDCHAR
STARTCHAR 2026
ENCODING 8230
SWIDTH 900 0
DWIDTH 15 0
BBX 13 3 0 0
BITMAP
E738
E738
E738
ENDCHAR
STARTCHAR 2030
ENCODING 8240
SWIDTH 780 0
DWIDTH 13 0
BBX 11 16 0 0
BITMAP
E0E0
E0E0
40E0
40E0
01E0
07C0
0780
0F00
1E00
7C00
7800
F000
E440
EEE0
EEE0
E440
ENDCHAR
STARTCHAR 2039
ENCODING 8249
SWIDTH 480 0
DWIDTH 8 0
BBX 7 13 0 2
BITMAP
04
0A
1E
7C
78
F0
E0
E0
78
7C
3E
1E
04
ENDCHAR
STARTCHAR 203A
ENCODING 8250
SWIDTH 540 0
DWIDTH 9 0
BBX 7 13 0 2
BITMAP
40
A0
F0
7C
3C
1E
0E
0E
3C
7C
F8
F0
40
ENDCHAR
STARTCHAR 2044
ENCODING 8260
SWIDTH 780 0
DWIDTH 13 0
BBX 12 11 0 3
BITMAP
0030
0070
00E0
0180
0300
0600
0C00
3800
3000
C000
C000
ENDCHAR
STARTCHAR 20AC
ENCODING 8364
SWIDTH 720 0
DWIDTH 12 0
BBX 10 16 0 0
BITMAP
FFC0
FFC0
FFC0
E000
E000
FF80
FF80
E000
E000
FF80
FF80
E000
E000
FFC0
FFC0
7F80
ENDCHAR
STARTCHAR 2116
ENCODING 8470
SWIDTH 960 0
DWIDTH 16 0
BBX 14 17 0 0
BITMAP
6398
A3DC
E3DC
E3DC
E3DC
F3DC
FBC0
FFC0
FFC0
FFC0
E7C0
E3C0
E3C0
E3C0
E3C0
E3C0
E3C0
ENDCHAR
STARTCHAR 2122
ENCODING 8482
SWIDTH 780 0
DWIDTH 13 0
BBX 11 8 0 4
BITMAP
FFE0
27E0
27E0
2760
2760
2660
2660
2660
ENDCHAR
ENDFONT
